<svg version="1.1" xmlns="http://www.w3.org/2000/svg" xmlns:xlink="http://www.w3.org/1999/xlink" x="0px" y="0px" viewBox="0 0 1000 1000" enable-background="new 0 0 1000 1000" xml:space="preserve">
<g><path d="M867.5,899.3h-735c-67.7,0-122.5-55-122.5-122.8V223.6c0-67.9,54.8-122.8,122.5-122.8h735c67.7,0,122.5,55,122.5,122.8v552.8C990,844.3,935.2,899.3,867.5,899.3z M163.1,162.2L500,455.9l336.9-293.7H163.1z M928.7,223.6c0-17.7-7.6-33.5-19.5-44.7L500,530.7L90.7,178.9c-11.9,11.2-19.5,27-19.5,44.7v552.8c0,33.9,27.4,61.4,61.3,61.4h735c33.8,0,61.2-27.5,61.2-61.4V223.6z" fill='white'/></g>
</svg>