<svg width="624px" height="273px" viewBox="0 0 624 273" version="1.1" xmlns="http://www.w3.org/2000/svg" xmlns:xlink="http://www.w3.org/1999/xlink">
    <g id="heart" stroke="none" stroke-width="1" fill="none" fill-rule="evenodd">
        <g id="littlesquiggle" transform="translate(3.000000, 6.000000)" stroke="#FF2200" stroke-width="11">
            <path d="M615.106723,134.430893 C562.988878,285.717652 344.303774,235.735603 424.637853,198.27581 C451.594279,185.706025 442.491132,329.263249 320.48603,219.113742 C293.633006,194.870106 278.995009,138.527037 278.995009,115.045885 C278.995009,71.7852944 283.675855,30.8191815 323.925727,41.6237929 C339.031055,45.6786429 345.823737,61.2678673 344.303774,88.391466 C375.935292,78.0044489 393.865613,83.9794713 398.094738,106.316533 C408.080462,159.058357 270.763468,179.867812 243.858547,153.713931 C95.4635672,9.46134011 430.373177,-64.009898 465.336673,72.334122 C488.872205,164.113536 307.659563,290.424641 0.212402039,125.626516" id="heart-path"></path>
        </g>
    </g>
</svg>
