<svg width="910px" height="297px" viewBox="0 0 910 297" version="1.1" xmlns="http://www.w3.org/2000/svg" xmlns:xlink="http://www.w3.org/1999/xlink">
    <!-- Generator: Sketch 51.1 (57501) - http://www.bohemiancoding.com/sketch -->
    <desc>Created with Sketch.</desc>
    <defs></defs>
    <g id="Page-1" stroke="none" stroke-width="1" fill="none" fill-rule="evenodd" opacity="0.300000012">
        <path d="M0.2109375,276.089844 C48.4765625,276.089844 60.5078953,284.433023 84.4179688,276.089844 C100.447523,270.496492 95.7142372,199.997421 121.683594,219.261719 C126.431737,222.783933 188.099236,311.815412 212.654297,290.941406 C246.571771,262.108509 197.871003,134.710846 252.945313,131.761719 C271.882441,130.74767 333.872662,245.198613 350.070313,248.957031 C421.0625,265.429687 433.671875,67.7109248 433.671875,50.5546875 C433.671875,44.6632835 433.671875,11.3398437 421.0625,4.9453125 C413.478362,1.09920541 405.578125,1.09920541 397.246094,11.3398437 C388.914063,21.5804821 382.242188,32.6757812 382.242188,50.5546875 C382.242188,61.993495 357.270303,12.9699091 342.769531,4.9453125 C327.21451,-3.66269614 322.762322,42.2528018 321.984375,50.5546875 C316.886112,104.960937 460.742217,157.075933 469.894531,161.808594 C481.316406,167.714844 517.324415,188.53663 547.085938,161.808594 C580.542969,131.761719 557.555831,127.260812 590.628906,105.066406 C606.78776,94.2226562 624.627604,94.2226562 644.148438,105.066406 C665.625,122.863281 676.363281,147.420573 676.363281,178.738281 C676.363281,201.660491 679.53379,240.320762 694.273438,265.429687 C709.013085,290.538613 763.460938,276.089844 774.957031,248.957031 C786.453125,221.824219 775.465056,158.889375 798.539063,153.53125 C805.320312,151.956544 823.125305,151.956544 834.941406,178.738281 C844.54268,200.50001 840.083766,262.828464 846.925781,276.089844 C851.934377,285.797641 872.442189,285.797641 908.449219,276.089844" id="Path-2" stroke="#F00101" stroke-width="5"></path>
    </g>
</svg>
