<svg id="Layer_1" data-name="Layer 1" xmlns="http://www.w3.org/2000/svg" viewBox="0 0 114.97 114.97"><title>icon-twitter-black</title><path d="M644.47,273.91A57.49,57.49,0,1,1,702,216.43,57.55,57.55,0,0,1,644.47,273.91Zm0-109A51.49,51.49,0,1,0,696,216.43,51.55,51.55,0,0,0,644.47,164.94Z" transform="translate(-586.98 -158.94)" fill='white'/><path d="M652.6,192.44A13.46,13.46,0,0,0,643.54,206l0.14,2.3-2.32-.28a37.79,37.79,0,0,1-22.12-10.9L616.16,194l-0.79,2.25a13.58,13.58,0,0,0,2.88,13.91c1.86,2,1.44,2.25-1.76,1.08a5.42,5.42,0,0,0-2.18-.52c-0.33.33,0.79,4.6,1.67,6.3a15,15,0,0,0,6.37,6l2.28,1.08-2.7,0c-2.6,0-2.7,0-2.41,1,0.93,3.05,4.6,6.3,8.69,7.71l2.88,1-2.51,1.51a26,26,0,0,1-12.46,3.47,13.71,13.71,0,0,0-3.81.38c0,0.47,5.67,3.1,9,4.14a39.22,39.22,0,0,0,30.49-3.48c6.28-3.71,12.55-11.09,15.48-18.24,1.58-3.8,3.16-10.76,3.16-14.09,0-2.16.14-2.44,2.74-5A31.26,31.26,0,0,0,676.4,199c0.47-.9.42-0.9-2-0.09-3.95,1.41-4.51,1.22-2.55-.89,1.44-1.51,3.16-4.23,3.16-5a2.53,2.53,0,0,0-1.49.52,25.5,25.5,0,0,1-4.09,1.6l-2.51.8-2.28-1.56a19,19,0,0,0-3.95-2.07A15.87,15.87,0,0,0,652.6,192.44Z" transform="translate(-586.98 -158.94)" fill='white'/></svg>